<svg xmlns="http://www.w3.org/2000/svg" viewBox="0 0 256 256" role="img" aria-label="Keep logo">
  <defs>
    <linearGradient id="bg" x1="0" x2="1" y1="0" y2="1">
      <stop offset="0%" stop-color="#1B7D3E"/>
      <stop offset="100%" stop-color="#2E9B54"/>
    </linearGradient>
  </defs>
  <circle cx="128" cy="128" r="118" fill="url(#bg)"/>
  <circle cx="128" cy="128" r="110" fill="none" stroke="#D4A843" stroke-width="8"/>
  <path d="M138 62a14 14 0 1 1-28 0 14 14 0 0 1 28 0zm-6 24 21 16c7 5 9 15 4 22l-14 21 18 47c2 6-1 12-7 14-6 2-12-1-14-7l-18-45h-20l-12 21c-3 6-11 8-17 5-6-3-8-11-5-17l17-30c3-5 8-8 14-8h21l8-13-15-11c-5-4-6-11-2-16 4-5 11-6 16-2z" fill="#F0D78C"/>
  <text x="128" y="236" text-anchor="middle" fill="#FFFFFF" font-size="28" font-family="Arial, sans-serif" font-weight="700">KEEP</text>
</svg>
